<?xml version="1.0" encoding="UTF-8"?>
<svg id="Capa_1" xmlns="http://www.w3.org/2000/svg" version="1.1" viewBox="0 0 512 512">
  <!-- Generator: Adobe Illustrator 29.6.1, SVG Export Plug-In . SVG Version: 2.1.1 Build 9)  -->
  <defs>
    <style>
      .st0 {
        fill: #fed;
        fill-rule: evenodd;
      }
    </style>
  </defs>
  <path class="st0" d="M414.73,97.1c-41.83-41.85-98.62-65.28-157.79-65.1-122.94,0-223.02,99.58-223.07,222-.05,38.98,10.22,77.28,29.78,111l-31.65,115,118.25-30.87c32.73,17.73,69.37,27.01,106.6,27h.09c122.93,0,223-99.59,223.06-222,.15-58.97-23.36-115.54-65.27-157.03ZM256.94,438.66h-.08c-33.19,0-65.77-8.87-94.36-25.72l-6.77-4-70.17,18.32,18.73-68.09-4.41-7c-18.56-29.38-28.39-63.42-28.35-98.17,0-101.73,83.21-184.5,185.48-184.5,102.16-.18,185.13,82.48,185.33,184.64-.04,101.74-83.21,184.52-185.4,184.52ZM358.63,300.47c-5.57-2.78-33-16.2-38.08-18.05s-8.83-2.78-12.54,2.78-14.4,18-17.65,21.75-6.5,4.16-12.07,1.38-23.54-8.63-44.83-27.53c-16.57-14.71-27.75-32.87-31-38.42s-.35-8.56,2.44-11.32c2.51-2.49,5.57-6.48,8.36-9.72s3.72-5.56,5.57-9.26.93-6.94-.46-9.71-12.54-30.08-17.18-41.19c-4.53-10.82-9.12-9.35-12.54-9.52-3.25-.16-7-.2-10.69-.2-5.7.15-11.09,2.66-14.86,6.94-5.11,5.56-19.51,19-19.51,46.28s20,53.68,22.76,57.38,39.3,59.73,95.21,83.76c10.38,4.45,20.99,8.34,31.78,11.68,13.35,4.22,25.5,3.63,35.1,2.2,10.71-1.59,33-13.42,37.63-26.38s4.64-24.06,3.25-26.37-5.11-3.71-10.69-6.48Z"/>
</svg>