<?xml version="1.0" encoding="UTF-8"?>
<svg id="Capa_1" xmlns="http://www.w3.org/2000/svg" version="1.1" viewBox="0 0 512 512">
  <!-- Generator: Adobe Illustrator 29.6.1, SVG Export Plug-In . SVG Version: 2.1.1 Build 9)  -->
  <defs>
    <style>
      .st0 {
        fill: #fed;
      }
    </style>
  </defs>
  <path class="st0" d="M349.33,69.33c51.49.15,93.19,41.85,93.34,93.34v186.66c-.15,51.49-41.85,93.19-93.34,93.34h-186.66c-51.49-.15-93.19-41.85-93.34-93.34v-186.66c.15-51.49,41.85-93.19,93.34-93.34h186.66M349.33,32h-186.66c-71.87,0-130.67,58.8-130.67,130.67v186.66c0,71.87,58.8,130.67,130.67,130.67h186.66c71.87,0,130.67-58.8,130.67-130.67v-186.66c0-71.87-58.8-130.67-130.67-130.67Z"/>
  <path class="st0" d="M377.33,162.67c-15.46,0-28-12.54-28-28s12.54-28,28-28,28,12.54,28,28c.03,15.43-12.45,27.97-27.88,28-.04,0-.08,0-.12,0Z"/>
  <path class="st0" d="M256,181.33c41.24,0,74.67,33.43,74.67,74.67s-33.43,74.67-74.67,74.67-74.67-33.43-74.67-74.67c.04-41.22,33.45-74.63,74.67-74.67M256,144c-61.86,0-112,50.14-112,112s50.14,112,112,112,112-50.14,112-112-50.14-112-112-112Z"/>
</svg>